<svg xmlns="http://www.w3.org/2000/svg" viewBox="0 0 500 500"><g id="freepik--background-complete--inject-1"><rect y="382.4" width="500" height="0.25" style="fill:#ebebeb"></rect><rect x="416.78" y="398.49" width="33.12" height="0.25" style="fill:#ebebeb"></rect><rect x="322.53" y="401.21" width="8.69" height="0.25" style="fill:#ebebeb"></rect><rect x="396.59" y="389.21" width="19.19" height="0.25" style="fill:#ebebeb"></rect><rect x="52.46" y="390.89" width="43.19" height="0.25" style="fill:#ebebeb"></rect><rect x="104.56" y="390.89" width="6.33" height="0.25" style="fill:#ebebeb"></rect><rect x="131.47" y="395.11" width="93.68" height="0.25" style="fill:#ebebeb"></rect><path d="M237,337.8H43.91a5.71,5.71,0,0,1-5.7-5.71V60.66A5.71,5.71,0,0,1,43.91,55H237a5.71,5.71,0,0,1,5.71,5.71V332.09A5.71,5.71,0,0,1,237,337.8ZM43.91,55.2a5.46,5.46,0,0,0-5.45,5.46V332.09a5.46,5.46,0,0,0,5.45,5.46H237a5.47,5.47,0,0,0,5.46-5.46V60.66A5.47,5.47,0,0,0,237,55.2Z" style="fill:#ebebeb"></path><path d="M453.31,337.8H260.21a5.72,5.72,0,0,1-5.71-5.71V60.66A5.72,5.72,0,0,1,260.21,55h193.1A5.71,5.71,0,0,1,459,60.66V332.09A5.71,5.71,0,0,1,453.31,337.8ZM260.21,55.2a5.47,5.47,0,0,0-5.46,5.46V332.09a5.47,5.47,0,0,0,5.46,5.46h193.1a5.47,5.47,0,0,0,5.46-5.46V60.66a5.47,5.47,0,0,0-5.46-5.46Z" style="fill:#ebebeb"></path><polygon points="304.44 84.78 312.06 76.15 316.04 87.82 327.32 84.55 325.07 96.13 336.98 99.09 329.1 107.49 338.45 115.89 327.06 118.84 331.34 130.43 319.48 127.16 317.55 138.83 308.41 130.2 300.78 138.83 296.8 127.16 285.52 130.43 287.77 118.84 275.86 115.89 283.74 107.49 274.39 99.09 285.79 96.13 281.51 84.55 293.36 87.82 295.3 76.15 304.44 84.78" style="fill:#e0e0e0"></polygon><path d="M298.34,101.3a2.79,2.79,0,0,1,.91,2.43,3.51,3.51,0,0,1-.62,1.8,3.84,3.84,0,0,1-1.59,1.29,6,6,0,0,1-2.51.48,8.26,8.26,0,0,1-2.22-.3,5.33,5.33,0,0,1-1.81-.85l1.12-1.91A4.31,4.31,0,0,0,293,105a5.28,5.28,0,0,0,1.63.25,2.64,2.64,0,0,0,1.5-.37,1.3,1.3,0,0,0,.62-1,1.09,1.09,0,0,0-.49-1,3.8,3.8,0,0,0-1.92-.35h-2.75l1-6.06h6.57l-.15,2h-4.49l-.31,2.05h.88A4.92,4.92,0,0,1,298.34,101.3Z" style="fill:#fafafa"></path><path d="M302.29,106.64a4.08,4.08,0,0,1-1.5-1.91,6.73,6.73,0,0,1-.38-3,7.36,7.36,0,0,1,.8-3A5,5,0,0,1,303,96.83a4.62,4.62,0,0,1,2.43-.66,4.17,4.17,0,0,1,2.34.66,4.08,4.08,0,0,1,1.5,1.91,6.85,6.85,0,0,1,.38,3,7.21,7.21,0,0,1-.81,3,4.89,4.89,0,0,1-1.77,1.91,4.62,4.62,0,0,1-2.43.66A4.17,4.17,0,0,1,302.29,106.64Zm4.09-2.29a5,5,0,0,0,.75-2.62,4.59,4.59,0,0,0-.38-2.61,1.62,1.62,0,0,0-1.48-.85,1.9,1.9,0,0,0-1.59.85,5.06,5.06,0,0,0-.75,2.61,4.62,4.62,0,0,0,.38,2.62,1.61,1.61,0,0,0,1.47.85A1.92,1.92,0,0,0,306.38,104.35Z" style="fill:#fafafa"></path><path d="M311.44,101.36a2.86,2.86,0,0,1-.59-2.16,3.22,3.22,0,0,1,.9-2.16,2.66,2.66,0,0,1,2-.81,2.31,2.31,0,0,1,1.87.81,2.89,2.89,0,0,1,.58,2.16,3.28,3.28,0,0,1-.89,2.16,2.66,2.66,0,0,1-2,.81A2.32,2.32,0,0,1,311.44,101.36Zm2.82-.89a2.33,2.33,0,0,0,.39-1.27,2.15,2.15,0,0,0-.21-1.28.88.88,0,0,0-.79-.43,1,1,0,0,0-.85.44,2.27,2.27,0,0,0-.4,1.27,2.08,2.08,0,0,0,.22,1.27.86.86,0,0,0,.78.43A1,1,0,0,0,314.26,100.47Zm5.88-4.12H322l-8.12,10.77H312Zm-1.23,10.53a2.18,2.18,0,0,1-.87-1,3.28,3.28,0,0,1-.23-1.57,3.64,3.64,0,0,1,.45-1.57,2.73,2.73,0,0,1,1-1,2.79,2.79,0,0,1,1.4-.37,2.32,2.32,0,0,1,1.87.81,2.9,2.9,0,0,1,.6,2.16,3.32,3.32,0,0,1-.9,2.16,2.7,2.7,0,0,1-2,.81A2.52,2.52,0,0,1,318.91,106.88Zm2.29-1.34a2.36,2.36,0,0,0,.39-1.27,2.16,2.16,0,0,0-.21-1.27.87.87,0,0,0-.79-.43,1,1,0,0,0-.85.43,2.33,2.33,0,0,0-.39,1.27,2.15,2.15,0,0,0,.21,1.28.89.89,0,0,0,.79.43A1,1,0,0,0,321.2,105.54Z" style="fill:#fafafa"></path><path d="M292.88,122.47a4.9,4.9,0,0,1-2-2,5.22,5.22,0,0,1-.55-2.85,5.71,5.71,0,0,1,1-2.86,6,6,0,0,1,2.25-2,6.58,6.58,0,0,1,3.07-.72,5.93,5.93,0,0,1,3,.72,4.9,4.9,0,0,1,2,2,5.24,5.24,0,0,1,.57,2.86,5.82,5.82,0,0,1-1,2.85,6.17,6.17,0,0,1-2.25,2,6.58,6.58,0,0,1-3.07.72A6,6,0,0,1,292.88,122.47Zm4.88-1.84a3.51,3.51,0,0,0,1.29-1.22,3.7,3.7,0,0,0,.56-1.78,3.4,3.4,0,0,0-.31-1.79,2.81,2.81,0,0,0-1.12-1.22,3.25,3.25,0,0,0-1.69-.44,3.58,3.58,0,0,0-1.75.44,3.46,3.46,0,0,0-1.3,1.22,3.85,3.85,0,0,0-.56,1.79,3.36,3.36,0,0,0,.31,1.78,2.81,2.81,0,0,0,1.12,1.22,3.18,3.18,0,0,0,1.69.44A3.54,3.54,0,0,0,297.76,120.63Z" style="fill:#fafafa"></path><path d="M306.74,114.24l-.2,2.85h5l-.15,2h-5l-.28,3.92h-2.49l.76-10.77h8.14l-.14,2Z" style="fill:#fafafa"></path><path d="M316.57,114.24l-.2,2.85h5l-.14,2h-5L316,123h-2.49l.76-10.77h8.14l-.14,2Z" style="fill:#fafafa"></path><circle cx="122.61" cy="179.36" r="14.52" transform="translate(-80.12 257.49) rotate(-76.72)" style="fill:#ebebeb"></circle><circle cx="122.61" cy="179.36" r="12.44" transform="translate(-80.12 257.49) rotate(-76.72)" style="fill:#e0e0e0;isolation:isolate"></circle><path d="M123.41,185.36v1.88H122v-1.86a7.31,7.31,0,0,1-4.11-1.4l.75-1.7a6.45,6.45,0,0,0,3.36,1.28V180.2c-1.86-.45-3.86-1.06-3.86-3.39,0-1.72,1.24-3.21,3.86-3.47v-1.9h1.38v1.87a7.16,7.16,0,0,1,3.41,1l-.68,1.69a7,7,0,0,0-2.73-.9v3.39c1.87.45,3.9,1,3.9,3.38C127.31,183.61,126.05,185.09,123.41,185.36ZM122,178.17v-3c-1.19.18-1.69.79-1.69,1.52S121.06,177.88,122,178.17Zm3.13,3.88c0-.82-.74-1.21-1.75-1.5v3C124.64,183.34,125.16,182.77,125.16,182.05Z" style="fill:#fafafa"></path><path d="M137.3,89.33l-1.2-2.57c-13,.6-14.95-4.33-15.22-5.9-.5-2.92,1.9-5.57,5.35-5.92,4.76-.49,8.34,3.81,10.22,6.65,2.21-3,6.78-5.44,10.38-5.44h0a5.58,5.58,0,0,1,5.72,3.93,4.15,4.15,0,0,1-.57,4.23c-2.75,3.43-11.59,2.76-14.26,2.49Zm1.1-5.22c4,.35,9.77.09,11.24-1.74.23-.29.47-.59.16-1.53a2.43,2.43,0,0,0-2.71-1.77h0C143.9,79.07,139.65,81.78,138.4,84.11Zm-11.17-6.29-.45,0c-2,.2-3.21,1.63-3,2.77.22,1.29,2.82,3.47,10.9,3.27C133.5,81.86,130.71,77.82,127.23,77.82Z" style="fill:#e0e0e0"></path><polygon points="165.27 124.29 108.41 124.29 108.41 85.23 165.09 85.23 165.27 124.29" style="fill:#f5f5f5"></polygon><polygon points="150.74 85.23 146.12 85.23 146.31 124.29 150.93 124.29 150.74 85.23" style="fill:#e0e0e0"></polygon><polygon points="131.09 124.29 108.49 124.29 108.49 85.23 130.9 85.23 131.09 124.29" style="fill:#ebebeb;isolation:isolate"></polygon><polygon points="119.79 124.29 116.4 124.29 116.21 85.23 119.61 85.23 119.79 124.29" style="fill:#e0e0e0"></polygon><path d="M106.63,334.25l-3.37,11.41h-1.92s-.66-10.12-1.54-10.06c-.58,0-7.57,3.16-9.85,7.35-1.47,2.71-7,2.71-7,2.71H63.81c.58-3.9,9.82-6.26,10.11-6.34h0s10.38-5.93,13.9-10.51,8.81-13.63,13.22-10.1a5.32,5.32,0,0,1,.69.66C105.58,323.53,106.63,334.25,106.63,334.25Z" style="fill:#ebebeb"></path><path d="M101.74,319.37a4.44,4.44,0,0,1-2.16,1.39c-4.18,1.52-5.14,8-9.33,13.52-3.67,4.85-11.85,5.72-15.9,5.11l-.42-.07s10.38-5.93,13.9-10.51,8.81-13.63,13.22-10.1A5.32,5.32,0,0,1,101.74,319.37Z" style="fill:#e0e0e0;isolation:isolate"></path><path d="M117.92,334.25l-3.38,11.41h-1.92s-.65-10.12-1.53-10.06c-.58,0-7.58,3.16-9.85,7.35-1.47,2.71-7,2.71-7,2.71H75.09c.58-3.9,9.83-6.26,10.12-6.34h0s10.37-5.93,13.89-10.51,8.81-13.63,13.23-10.1a6.05,6.05,0,0,1,.69.66C116.87,323.53,117.92,334.25,117.92,334.25Z" style="fill:#f5f5f5"></path><path d="M113,319.37a4.48,4.48,0,0,1-2.17,1.39c-4.17,1.52-5.13,8-9.32,13.52-3.68,4.85-11.85,5.72-15.91,5.11l-.41-.07s10.37-5.93,13.89-10.51,8.81-13.63,13.23-10.1A6.05,6.05,0,0,1,113,319.37Z" style="fill:#e6e6e6;isolation:isolate"></path><path d="M378.46,182.9c9.28.38,15.9,1.32,18.23,3.15l-11.93-43.88H383Z" style="fill:#e0e0e0"></path><polygon points="384.76 142.17 428.86 142.17 435.16 184.47 396.69 186.05 384.76 142.17" style="fill:#ebebeb"></polygon><path d="M378.46,182.9c10.46.51,16.73,1.54,18.23,3.15l-.22-.78c-3.49-2.64-8.36-3-13.73-2.44l2-40.66H383Z" style="fill:#ebebeb"></path><path d="M390.46,142.17c1.13-15.52,27-16.2,28.58,0H422c-4.27-18.67-31.27-18.45-34.09,0Z" style="fill:#f0f0f0"></path><path d="M384.76,142.17h44.1c2.19,14.67-3.1,21.83-8.38,21.94C409.51,164.71,392.67,153.84,384.76,142.17Z" style="fill:#e0e0e0"></path><polygon points="421.86 160.15 414.85 160.85 414.35 158.71 421.18 158.26 421.86 160.15" style="fill:#fafafa;opacity:0.7000000000000001"></polygon><polygon points="414.72 161.04 421.86 160.34 421.86 160.15 414.85 160.85 414.35 158.71 414.72 161.04" style="fill:#e0e0e0;opacity:0.2"></polygon><polygon points="97.59 268.29 97.59 221.44 94.62 221.44 94.62 268.29 84.81 270.27 84.81 272.24 107.41 272.24 107.41 270.27 97.59 268.29" style="fill:#e0e0e0"></polygon><path d="M84.91,228.27c5.91-7.88,5-11.92.59-17.83a12,12,0,0,1-2-11.53l10.15-1.2V193.8h4.81v3.91l10.15,1.2a12,12,0,0,1-2,11.53c-4.43,5.91-5.32,9.95.59,17.83s-.88,27-.88,27H85.8S79,236.16,84.91,228.27Z" style="fill:#e6e6e6"></path><path d="M110,236c-.6-8.68-6-10.7-6.46-17-.27-3.63,2.29-6.44,3.19-8.47a18.07,18.07,0,0,1-1.48-12.48l-3.82-.49s-1,7.69-5.29,8.1c-4.32-.41-5.3-8.1-5.3-8.1l-3.81.49a18,18,0,0,1-1.49,12.48c.91,2,3.47,4.84,3.19,8.47-.47,6.29-5.86,8.31-6.45,17C81.51,246.72,85.16,258,85.16,258l10.6.52v0h.7v0l10.6-.52S110.71,246.72,110,236Z" style="fill:#f5f5f5"></path><path d="M412.39,319.32a21.05,21.05,0,1,1,21.05-21.05A21.07,21.07,0,0,1,412.39,319.32Zm0-35.3a14.25,14.25,0,1,0,14.25,14.25A14.26,14.26,0,0,0,412.39,284Z" style="fill:#f0f0f0"></path><polygon points="402.11 263.91 397.96 268.06 412.39 282.49 426.81 268.06 422.67 263.91 402.11 263.91" style="fill:#e0e0e0"></polygon><polygon points="407.61 263.91 405.68 268.06 412.39 282.49 419.1 268.06 417.17 263.91 407.61 263.91" style="fill:#ebebeb;isolation:isolate"></polygon></g><g id="freepik--Shadow--inject-1"><ellipse id="freepik--path--inject-1" cx="250" cy="416.24" rx="193.89" ry="11.32" style="fill:#f5f5f5"></ellipse></g></svg>