<svg xmlns="http://www.w3.org/2000/svg" viewBox="0 0 500 500"><g id="freepik--background-complete--inject-1"><rect y="382.4" width="500" height="0.25" style="fill:#ebebeb"></rect><rect x="416.78" y="398.49" width="33.12" height="0.25" style="fill:#ebebeb"></rect><rect x="322.53" y="401.21" width="8.69" height="0.25" style="fill:#ebebeb"></rect><rect x="396.59" y="389.21" width="19.19" height="0.25" style="fill:#ebebeb"></rect><rect x="52.46" y="390.89" width="43.19" height="0.25" style="fill:#ebebeb"></rect><rect x="104.56" y="390.89" width="6.33" height="0.25" style="fill:#ebebeb"></rect><rect x="131.47" y="395.11" width="93.68" height="0.25" style="fill:#ebebeb"></rect><path d="M237,337.8H43.91a5.71,5.71,0,0,1-5.7-5.71V60.66A5.71,5.71,0,0,1,43.91,55H237a5.71,5.71,0,0,1,5.71,5.71V332.09A5.71,5.71,0,0,1,237,337.8ZM43.91,55.2a5.46,5.46,0,0,0-5.45,5.46V332.09a5.46,5.46,0,0,0,5.45,5.46H237a5.47,5.47,0,0,0,5.46-5.46V60.66A5.47,5.47,0,0,0,237,55.2Z" style="fill:#ebebeb"></path><path d="M453.31,337.8H260.21a5.72,5.72,0,0,1-5.71-5.71V60.66A5.72,5.72,0,0,1,260.21,55h193.1A5.71,5.71,0,0,1,459,60.66V332.09A5.71,5.71,0,0,1,453.31,337.8ZM260.21,55.2a5.47,5.47,0,0,0-5.46,5.46V332.09a5.47,5.47,0,0,0,5.46,5.46h193.1a5.47,5.47,0,0,0,5.46-5.46V60.66a5.47,5.47,0,0,0-5.46-5.46Z" style="fill:#ebebeb"></path><rect x="49.78" y="371.41" width="58.09" height="35.6" rx="4.22" style="fill:#ebebeb"></rect><path d="M67.7,385.56H54.91a.82.82,0,0,1-.82-.82h0a.83.83,0,0,1,.82-.83H67.7a.83.83,0,0,1,.83.83h0A.83.83,0,0,1,67.7,385.56Z" style="fill:#fafafa;isolation:isolate"></path><path d="M103.91,376.83H91.12a.83.83,0,0,1-.82-.83h0a.83.83,0,0,1,.82-.83h12.79a.83.83,0,0,1,.83.83h0A.83.83,0,0,1,103.91,376.83Z" style="fill:#fafafa;isolation:isolate"></path><path d="M67.7,403H54.91a.83.83,0,0,1-.82-.83h0a.83.83,0,0,1,.82-.83H67.7a.83.83,0,0,1,.83.83h0A.83.83,0,0,1,67.7,403Z" style="fill:#fafafa;isolation:isolate"></path><path d="M58.28,389.65H54.91a.83.83,0,0,1-.82-.83h0a.82.82,0,0,1,.82-.82h3.37a.82.82,0,0,1,.82.82h0A.83.83,0,0,1,58.28,389.65Z" style="fill:#fafafa;isolation:isolate"></path><rect x="90.5" y="394.47" width="14.03" height="10.04" rx="1.71" style="fill:#e0e0e0;isolation:isolate"></rect><rect x="81.39" y="86.58" width="76.2" height="46.7" rx="4.22" style="fill:#ebebeb"></rect><path d="M104.9,105.15H88.13A1.09,1.09,0,0,1,87,104.07h0A1.09,1.09,0,0,1,88.13,103H104.9a1.09,1.09,0,0,1,1.09,1.09h0A1.09,1.09,0,0,1,104.9,105.15Z" style="fill:#fafafa;isolation:isolate"></path><path d="M152.41,93.69H135.63a1.08,1.08,0,0,1-1.08-1.09h0a1.08,1.08,0,0,1,1.08-1.08h16.78a1.08,1.08,0,0,1,1.08,1.08h0A1.08,1.08,0,0,1,152.41,93.69Z" style="fill:#fafafa;isolation:isolate"></path><rect x="87.04" y="125.84" width="18.95" height="2.17" rx="0.79" style="fill:#fafafa;isolation:isolate"></rect><path d="M92.54,110.51H88.13A1.09,1.09,0,0,1,87,109.42h0a1.09,1.09,0,0,1,1.09-1.08h4.41a1.08,1.08,0,0,1,1.08,1.08h0A1.08,1.08,0,0,1,92.54,110.51Z" style="fill:#fafafa;isolation:isolate"></path><rect x="134.82" y="116.84" width="18.4" height="13.17" rx="1.71" style="fill:#e0e0e0;isolation:isolate"></rect><path d="M304.88,115.19v5.41h-4v-5.36c-4.73-.29-9.31-1.83-11.82-4l2.17-4.87a18.53,18.53,0,0,0,9.65,3.67v-9.65c-5.36-1.31-11.1-3-11.1-9.75,0-4.92,3.57-9.22,11.1-9.94V75.23h4v5.36a20.71,20.71,0,0,1,9.79,2.94l-2,4.88a19.89,19.89,0,0,0-7.81-2.61v9.75c5.35,1.3,11.19,3,11.19,9.7C316.07,110.17,312.45,114.42,304.88,115.19Zm-4-20.65V86c-3.43.53-4.87,2.26-4.87,4.39C296.05,92.65,298.12,93.72,300.92,94.54Zm9,11.14c0-2.36-2.13-3.47-5-4.29v8.54C308.4,109.4,309.9,107.76,309.9,105.68Z" style="fill:#e0e0e0"></path><path d="M430.12,348.29v4.12h-3v-4.09c-3.6-.22-7.1-1.4-9-3.05l1.65-3.72a14.14,14.14,0,0,0,7.36,2.8V337c-4.08-1-8.46-2.32-8.46-7.43,0-3.75,2.72-7,8.46-7.58v-4.15h3v4.08a15.91,15.91,0,0,1,7.47,2.24l-1.51,3.72a15.23,15.23,0,0,0-6-2v7.43c4.08,1,8.53,2.28,8.53,7.4C438.65,344.46,435.89,347.7,430.12,348.29Zm-3-15.75V326c-2.61.41-3.71,1.73-3.71,3.35C423.39,331.11,425,331.92,427.1,332.54Zm6.84,8.5c0-1.8-1.61-2.65-3.82-3.28v6.52C432.8,343.87,433.94,342.62,433.94,341Z" style="fill:#e0e0e0"></path><path d="M53.64,307.63a7.36,7.36,0,0,1-2-5.46,8.24,8.24,0,0,1,.92-4,6.24,6.24,0,0,1,2.53-2.56,8.07,8.07,0,0,1,7.29,0,6.32,6.32,0,0,1,2.54,2.56,8.35,8.35,0,0,1,.91,4,7.39,7.39,0,0,1-2,5.46,7.58,7.58,0,0,1-10.22,0Zm20.78-12.51h6.45L62.64,321.81H56.19ZM60,304.71a7.07,7.07,0,0,0,0-5.07,1.32,1.32,0,0,0-2.41,0,7.07,7.07,0,0,0,0,5.07,1.32,1.32,0,0,0,2.41,0Zm13.25,15.5a7.37,7.37,0,0,1-2-5.45,8.28,8.28,0,0,1,.91-4,6.18,6.18,0,0,1,2.54-2.55,8,8,0,0,1,7.28,0,6.18,6.18,0,0,1,2.54,2.55,8.28,8.28,0,0,1,.92,4,7.38,7.38,0,0,1-2,5.45,7.56,7.56,0,0,1-10.22,0Zm6.31-2.92a6.93,6.93,0,0,0,0-5.07,1.31,1.31,0,0,0-2.4,0,6.93,6.93,0,0,0,0,5.07,1.31,1.31,0,0,0,2.4,0Z" style="fill:#e0e0e0"></path><path d="M380.48,158.1a10.49,10.49,0,0,1-2.81-7.74,11.69,11.69,0,0,1,1.3-5.69,8.78,8.78,0,0,1,3.6-3.62,11.4,11.4,0,0,1,10.34,0,8.9,8.9,0,0,1,3.6,3.62,11.81,11.81,0,0,1,1.29,5.69A10.45,10.45,0,0,1,395,158.1a10.77,10.77,0,0,1-14.51,0ZM410,140.34h9.15l-25.87,37.89h-9.15ZM389.44,154a9.87,9.87,0,0,0,0-7.2,1.86,1.86,0,0,0-3.41,0,10,10,0,0,0,0,7.2,1.86,1.86,0,0,0,3.41,0Zm18.81,22a10.49,10.49,0,0,1-2.81-7.74,11.65,11.65,0,0,1,1.3-5.68,8.75,8.75,0,0,1,3.6-3.63,11.38,11.38,0,0,1,10.33,0,8.75,8.75,0,0,1,3.6,3.63,11.65,11.65,0,0,1,1.3,5.68,10.45,10.45,0,0,1-2.81,7.74,10.74,10.74,0,0,1-14.51,0Zm9-4.14a9.87,9.87,0,0,0,0-7.2,1.86,1.86,0,0,0-3.41,0,9.87,9.87,0,0,0,0,7.2,1.86,1.86,0,0,0,3.41,0Z" style="fill:#e0e0e0"></path></g><g id="freepik--Shadow--inject-1"><ellipse id="freepik--path--inject-1" cx="250" cy="416.24" rx="193.89" ry="11.32" style="fill:#f5f5f5"></ellipse></g></svg>